<?xml version="1.0" encoding="UTF-8" standalone="no"?>
<svg
   id="Layer_2"
   viewBox="0 0 610 128.08"
   version="1.1"
   sodipodi:docname="logo2.svg"
   inkscape:version="1.4.2 (f4327f4, 2025-05-13)"
   width="610"
   height="128.08"
   xmlns:inkscape="http://www.inkscape.org/namespaces/inkscape"
   xmlns:sodipodi="http://sodipodi.sourceforge.net/DTD/sodipodi-0.dtd"
   xmlns:xlink="http://www.w3.org/1999/xlink"
   xmlns="http://www.w3.org/2000/svg"
   xmlns:svg="http://www.w3.org/2000/svg">
  <g
     id="text1"
     style="font-size:54.0701px;font-family:'Nirmala Text';-inkscape-font-specification:'Nirmala Text, Normal';fill:#99cc33;stroke-width:0.899115"
     transform="scale(0.92411167,1.0821203)"
     aria-label="Mantis Digital Media">
    <path
       style="font-family:Impact;-inkscape-font-specification:'Impact, Normal'"
       d="M 228.36492,45.593602 V 88.337494 H 218.6492 V 59.480747 l -3.88101,28.856747 h -6.89077 L 203.7852,60.140782 v 28.196712 h -9.71572 V 45.593602 h 14.38877 q 0.63364,3.854607 1.34647,9.082087 l 1.53129,10.877383 2.53453,-19.95947 z"
       id="path3" />
    <path
       style="font-family:Impact;-inkscape-font-specification:'Impact, Normal'"
       d="m 242.04085,66.873143 h -10.00613 v -2.349726 q 0,-4.065818 0.92405,-6.257135 0.95045,-2.217719 3.7754,-3.90741 2.82495,-1.68969 7.33959,-1.68969 5.41229,0 8.15804,1.927303 2.74575,1.900902 3.30018,4.699452 0.55443,2.772149 0.55443,11.458214 v 17.583343 h -10.37576 v -3.115367 q -0.97685,1.8745 -2.53454,2.824951 -1.53128,0.92405 -3.66979,0.92405 -2.79855,0 -5.14828,-1.557684 -2.32332,-1.584085 -2.32332,-6.890769 v -2.877754 q 0,-3.933811 1.24086,-5.359488 1.24087,-1.425676 6.15153,-3.326578 5.25388,-2.05931 5.6235,-2.772149 0.36962,-0.712838 0.36962,-2.904155 0,-2.745748 -0.42242,-3.564191 -0.39602,-0.844846 -1.34647,-0.844846 -1.08246,0 -1.34647,0.712838 -0.26402,0.686437 -0.26402,3.616994 z m 3.37938,4.805058 q -2.56093,1.8745 -2.98336,3.141768 -0.39602,1.267268 -0.39602,3.643396 0,2.719345 0.34322,3.511388 0.36962,0.792042 1.42568,0.792042 1.00325,0 1.29367,-0.607232 0.31681,-0.633634 0.31681,-3.273776 z m 25.18695,-18.375385 -0.18481,3.220972 q 1.16167,-1.927303 2.82496,-2.877754 1.68969,-0.976852 3.881,-0.976852 2.74575,0 4.48824,1.293669 1.7425,1.293669 2.24413,3.273775 0.50162,1.953705 0.50162,6.547552 V 88.337494 H 273.69615 V 64.074593 q 0,-3.616994 -0.23761,-4.409036 -0.23762,-0.792043 -1.32007,-0.792043 -1.13526,0 -1.42568,0.92405 -0.29042,0.897648 -0.29042,4.85786 v 23.68207 H 259.7562 V 53.302816 Z m 28.67194,-4.673051 v 5.517896 h 2.87776 v 5.544297 h -2.87776 v 18.745005 q 0,3.458586 0.34322,3.854607 0.36962,0.396021 2.98336,0.396021 v 5.649903 h -4.30343 q -3.64339,0 -5.20108,-0.290416 -1.55768,-0.316817 -2.74575,-1.399275 -1.18806,-1.108859 -1.47847,-2.508134 -0.29042,-1.425677 -0.29042,-6.653157 V 59.691958 h -2.29692 v -5.544297 h 2.29692 v -5.517896 z m 16.21047,-3.036163 v 5.570699 H 304.5066 v -5.570699 z m 0,7.709214 V 88.337494 H 304.5066 V 53.302816 Z m 25.60937,11.1942 h -9.4517 v -1.900902 q 0,-2.42893 -0.29042,-3.062564 -0.26401,-0.660036 -1.37287,-0.660036 -0.89765,0 -1.34648,0.607233 -0.44882,0.580831 -0.44882,1.768895 0,1.610486 0.21121,2.376127 0.23761,0.73924 1.34647,1.636888 1.13526,0.897648 4.62025,2.61374 4.64665,2.270522 6.09873,4.277029 1.45208,2.006508 1.45208,5.834713 0,4.277029 -1.10886,6.468347 -1.10886,2.164916 -3.7226,3.35298 -2.58734,1.161662 -6.25714,1.161662 -4.06582,0 -6.96997,-1.267268 -2.87776,-1.267268 -3.96021,-3.432184 -1.08246,-2.164916 -1.08246,-6.547551 v -1.689691 h 9.4517 v 2.217719 q 0,2.824952 0.34322,3.669797 0.36962,0.844845 1.42568,0.844845 1.13526,0 1.58408,-0.554429 0.44883,-0.580832 0.44883,-2.402529 0,-2.508135 -0.58083,-3.141769 -0.60724,-0.633634 -6.20434,-3.749001 -4.69945,-2.640141 -5.7291,-4.778656 -1.02966,-2.164916 -1.02966,-5.121875 0,-4.197825 1.10886,-6.177931 1.10886,-2.006507 3.749,-3.088965 2.66655,-1.082458 6.17793,-1.082458 3.48499,0 5.91392,0.897648 2.45533,0.871246 3.749,2.323324 1.32007,1.452078 1.58409,2.692945 0.29041,1.240866 0.29041,3.881008 z m 13.51753,-18.903414 h 8.31645 q 8.05243,0 10.87738,0.73924 2.85135,0.73924 4.32983,2.42893 1.47848,1.689691 1.8481,3.775403 0.36962,2.05931 0.36962,8.131635 v 14.969603 q 0,5.755509 -0.55443,7.709213 -0.52803,1.927304 -1.8745,3.036163 -1.34647,1.082458 -3.32658,1.531282 -1.9801,0.422423 -5.96672,0.422423 h -14.01915 z m 11.115,7.313192 v 28.117508 q 2.40253,0 2.95696,-0.950451 0.55443,-0.976853 0.55443,-5.253882 v -16.60649 q 0,-2.904156 -0.18481,-3.7226 -0.18481,-0.818444 -0.84485,-1.188063 -0.66003,-0.396022 -2.48173,-0.396022 z m 29.43757,-7.313192 v 5.570699 h -10.98299 v -5.570699 z m 0,7.709214 V 88.337494 H 384.18607 V 53.302816 Z m 28.0647,0 v 26.982246 q 0,5.465093 -0.26401,7.07558 -0.23762,1.584084 -1.7689,3.352979 -1.53128,1.795297 -4.27703,2.719346 -2.71934,0.950451 -6.86437,0.950451 -5.09547,0 -8.18443,-1.742493 -3.08897,-1.716092 -3.19458,-6.785164 h 10.34936 q 0,2.323324 1.68969,2.323324 1.21446,0 1.61049,-0.712838 0.39602,-0.712838 0.39602,-2.98336 v -2.640141 q -1.37288,1.240866 -2.90416,1.8745 -1.50488,0.633634 -3.16817,0.633634 -2.87775,0 -4.75225,-1.161662 -1.8481,-1.161662 -2.53454,-3.036163 -0.68644,-1.900902 -0.68644,-5.385889 V 62.041684 q 0,-4.989867 1.7953,-7.181185 1.7953,-2.191317 5.46509,-2.191317 2.00651,0 3.6434,0.818443 1.66329,0.818444 2.95696,2.455332 l 0.76564,-2.640141 z m -10.69257,9.293298 q 0,-2.402529 -0.29042,-3.062564 -0.26401,-0.660036 -1.21446,-0.660036 -0.92405,0 -1.32007,0.765641 -0.36962,0.73924 -0.36962,2.956959 v 11.775031 q 0,2.349726 0.29041,3.062564 0.29042,0.686437 1.21447,0.686437 1.05605,0 1.37287,-0.844845 0.31682,-0.844845 0.31682,-3.828205 z m 25.47737,-17.002512 v 5.570699 h -10.98298 v -5.570699 z m 0,7.709214 V 88.337494 H 427.03558 V 53.302816 Z m 15.07521,-4.673051 v 5.517896 h 2.87775 v 5.544297 h -2.87775 v 18.745005 q 0,3.458586 0.34322,3.854607 0.36961,0.396021 2.98336,0.396021 v 5.649903 h -4.30344 q -3.64339,0 -5.20107,-0.290416 -1.55769,-0.316817 -2.74575,-1.399275 -1.18807,-1.108859 -1.47848,-2.508134 -0.29042,-1.425677 -0.29042,-6.653157 V 59.691958 h -2.29692 v -5.544297 h 2.29692 v -5.517896 z m 14.75838,18.243378 h -10.00614 v -2.349726 q 0,-4.065818 0.92405,-6.257135 0.95045,-2.217719 3.7754,-3.90741 2.82495,-1.68969 7.3396,-1.68969 5.41229,0 8.15803,1.927303 2.74575,1.900902 3.30018,4.699452 0.55443,2.772149 0.55443,11.458214 v 17.583343 h -10.37576 v -3.115367 q -0.97685,1.8745 -2.53453,2.824951 -1.53128,0.92405 -3.6698,0.92405 -2.79855,0 -5.14828,-1.557684 -2.32332,-1.584085 -2.32332,-6.890769 v -2.877754 q 0,-3.933811 1.24087,-5.359488 1.24086,-1.425676 6.15153,-3.326578 5.25388,-2.05931 5.6235,-2.772149 0.36962,-0.712838 0.36962,-2.904155 0,-2.745748 -0.42242,-3.564191 -0.39603,-0.844846 -1.34648,-0.844846 -1.08245,0 -1.34647,0.712838 -0.26401,0.686437 -0.26401,3.616994 z m 3.37938,4.805058 q -2.56094,1.8745 -2.98336,3.141768 -0.39602,1.267268 -0.39602,3.643396 0,2.719345 0.34322,3.511388 0.36961,0.792042 1.42567,0.792042 1.00326,0 1.29367,-0.607232 0.31682,-0.633634 0.31682,-3.273776 z M 496.5505,45.593602 V 88.337494 H 485.56751 V 45.593602 Z m 47.97137,0 v 42.743892 h -9.71572 V 59.480747 l -3.88101,28.856747 h -6.89077 l -4.09222,-28.196712 v 28.196712 h -9.71572 V 45.593602 h 14.38877 q 0.63364,3.854607 1.34648,9.082087 l 1.53128,10.877383 2.53453,-19.95947 z m 28.30233,25.846986 h -13.80794 v 7.577206 q 0,2.376128 0.34322,3.062564 0.34322,0.686437 1.32007,0.686437 1.21447,0 1.61049,-0.897648 0.42242,-0.924049 0.42242,-3.53779 V 73.71111 h 10.11174 v 2.587338 q 0,3.247375 -0.42242,4.989868 -0.39602,1.742493 -1.9009,3.7226 -1.50488,1.980106 -3.82821,2.983359 -2.29692,0.976853 -5.78191,0.976853 -3.37938,0 -5.96672,-0.976853 -2.58733,-0.976852 -4.03941,-2.666542 -1.42568,-1.716092 -1.98011,-3.749001 -0.55443,-2.059311 -0.55443,-5.96672 V 65.394664 q 0,-4.593846 1.24087,-7.233988 1.24086,-2.666543 4.06582,-4.065818 2.82495,-1.425676 6.49474,-1.425676 4.48824,0 7.3924,1.716092 2.93056,1.68969 4.09222,4.514642 1.18806,2.79855 1.18806,7.894023 z m -10.69257,-5.702706 v -2.560937 q 0,-2.719346 -0.29042,-3.511388 -0.29041,-0.792043 -1.18806,-0.792043 -1.10886,0 -1.37287,0.686437 -0.26402,0.660035 -0.26402,3.616994 v 2.560937 z m 38.44045,-20.14428 v 42.743892 h -10.66617 v -2.534536 q -1.53128,1.584085 -3.22097,2.376127 -1.68969,0.792043 -3.53779,0.792043 -2.48174,0 -4.30343,-1.293669 -1.8217,-1.320071 -2.34973,-3.036163 -0.50163,-1.716092 -0.50163,-5.5971 V 62.648917 q 0,-4.039417 0.50163,-5.729108 0.52803,-1.68969 2.37613,-2.956958 1.8481,-1.293669 4.40904,-1.293669 1.9801,0 3.61699,0.712838 1.66329,0.712838 3.00976,2.138514 v -9.926932 z m -10.66617,16.527286 q 0,-1.927303 -0.34322,-2.587338 -0.31682,-0.660036 -1.29367,-0.660036 -0.95045,0 -1.29367,0.607233 -0.31681,0.580831 -0.31681,2.640141 v 17.16092 q 0,2.138515 0.31681,2.824952 0.31682,0.660035 1.21447,0.660035 1.02965,0 1.37287,-0.739239 0.34322,-0.765641 0.34322,-3.696199 z m 25.47736,-16.527286 v 5.570699 h -10.98299 v -5.570699 z m 0,7.709214 V 88.337494 H 604.40028 V 53.302816 Z m 13.35911,13.570327 h -10.00614 v -2.349726 q 0,-4.065818 0.92405,-6.257135 0.95045,-2.217719 3.7754,-3.90741 2.82495,-1.68969 7.33959,-1.68969 5.41229,0 8.15804,1.927303 2.74575,1.900902 3.30018,4.699452 0.55443,2.772149 0.55443,11.458214 v 17.583343 h -10.37576 v -3.115367 q -0.97685,1.8745 -2.53453,2.824951 -1.53129,0.92405 -3.6698,0.92405 -2.79855,0 -5.14828,-1.557684 -2.32332,-1.584085 -2.32332,-6.890769 v -2.877754 q 0,-3.933811 1.24087,-5.359488 1.24086,-1.425676 6.15152,-3.326578 5.25389,-2.05931 5.62351,-2.772149 0.36962,-0.712838 0.36962,-2.904155 0,-2.745748 -0.42243,-3.564191 -0.39602,-0.844846 -1.34647,-0.844846 -1.08246,0 -1.34647,0.712838 -0.26401,0.686437 -0.26401,3.616994 z m 3.37938,4.805058 q -2.56094,1.8745 -2.98336,3.141768 -0.39602,1.267268 -0.39602,3.643396 0,2.719345 0.34321,3.511388 0.36962,0.792042 1.42568,0.792042 1.00325,0 1.29367,-0.607232 0.31682,-0.633634 0.31682,-3.273776 z"
       id="path4" />
  </g>
  <sodipodi:namedview
     id="namedview13"
     pagecolor="#ffffff"
     bordercolor="#000000"
     borderopacity="0.25"
     inkscape:showpageshadow="2"
     inkscape:pageopacity="0.0"
     inkscape:pagecheckerboard="0"
     inkscape:deskcolor="#d1d1d1"
     inkscape:zoom="2.7250837"
     inkscape:cx="211.36965"
     inkscape:cy="64.03473"
     inkscape:window-width="1920"
     inkscape:window-height="1111"
     inkscape:window-x="-9"
     inkscape:window-y="-9"
     inkscape:window-maximized="1"
     inkscape:current-layer="Layer_2"
     showgrid="false" />
  <defs
     id="defs8">
    <style
       id="style1">
    
      .cls-1 {
        fill: url(#linear-gradient-2);
      }

      .cls-2 {
        fill: #f2f9e5;
      }

      .cls-3 {
        fill: #a7c7ff;
      }

      .cls-4 {
        fill: url(#radial-gradient);
      }

      .cls-5 {
        fill: url(#radial-gradient-3);
      }

      .cls-6 {
        font-family: Anton, sans-serif;
        font-size: 58.97px;
      }

      .cls-6, .cls-7 {
        fill: #9c3;
      }

      .cls-8 {
        fill: url(#radial-gradient-2);
      }

      .cls-9 {
        letter-spacing: .3em;
      }

      .cls-10 {
        letter-spacing: .24em;
      }

      .cls-11 {
        fill: url(#linear-gradient);
      }

      .cls-7 {
        font-family: ArialMT, Arial;
        font-size: 28.01px;
      }
    </style>
    <radialGradient
       id="radial-gradient"
       cx="33.099998"
       cy="116.85"
       fx="33.099998"
       fy="116.85"
       r="27.190001"
       gradientTransform="matrix(1,0,0,1.08,0,-65.06)"
       gradientUnits="userSpaceOnUse">
      <stop
         offset=".11"
         stop-color="#efe37c"
         id="stop1" />
      <stop
         offset=".93"
         stop-color="#9c3"
         id="stop2" />
    </radialGradient>
    <radialGradient
       id="radial-gradient-2"
       cx="2148.48"
       cy="116.85"
       fx="2148.48"
       fy="116.85"
       r="27.190001"
       gradientTransform="matrix(-1,0,0,1.08,2275.09,-65.06)"
       xlink:href="#radial-gradient" />
    <radialGradient
       id="radial-gradient-3"
       cx="80.540001"
       cy="81.720001"
       fx="80.540001"
       fy="81.720001"
       r="35.549999"
       gradientUnits="userSpaceOnUse">
      <stop
         offset="0"
         stop-color="#7e9400"
         id="stop3" />
      <stop
         offset="1"
         stop-color="#516a00"
         id="stop4" />
    </radialGradient>
    <linearGradient
       id="linear-gradient"
       x1="54.59"
       y1="32.07"
       x2="61.290001"
       y2="30.059999"
       gradientUnits="userSpaceOnUse">
      <stop
         offset=".11"
         stop-color="#efe37c"
         id="stop5" />
      <stop
         offset="1"
         stop-color="#a4b401"
         id="stop6" />
    </linearGradient>
    <linearGradient
       id="linear-gradient-2"
       x1="97.989998"
       y1="29.65"
       x2="103.69"
       y2="31.33"
       gradientUnits="userSpaceOnUse">
      <stop
         offset=".11"
         stop-color="#efe37c"
         id="stop7" />
      <stop
         offset=".93"
         stop-color="#a4b401"
         id="stop8" />
    </linearGradient>
    <radialGradient
       inkscape:collect="always"
       xlink:href="#radial-gradient"
       id="radialGradient1"
       gradientUnits="userSpaceOnUse"
       gradientTransform="matrix(1,0,0,1.08,0,-65.06)"
       cx="33.099998"
       cy="116.85"
       fx="33.099998"
       fy="116.85"
       r="27.190001" />
  </defs>
  <g
     id="zap"
     transform="translate(4.4035345,1.1008836)">
    <path
       class="cls-4"
       d="m 42.85,55.62 c 0,0 -24.6,-2.26 -34.31,0.1 -9.71,2.36 -10,8.68 -6.51,13.12 3.49,4.44 26.43,19.88 46.52,21.74 0,0 6.7,-22.69 -5.7,-34.96 z"
       id="path9"
       style="fill:url(#radialGradient1)" />
    <path
       class="cls-8"
       d="m 116.86,55.62 c 0,0 24.6,-2.26 34.31,0.1 9.71,2.36 10,8.68 6.51,13.12 -3.49,4.44 -26.43,19.88 -46.52,21.74 0,0 -6.7,-22.69 5.7,-34.96 z"
       id="path10"
       style="fill:url(#radial-gradient-2)" />
    <path
       class="cls-5"
       d="m 81.64,115.13 c 5.87,-2.46 22,-10.25 31.01,-24.67 0,0 -3.72,-26.53 5.46,-34.96 l -3.47,-2.98 H 102.51 L 102.49,48.3 H 90.17 l -2.28,3.6 h -7.33 v 0.78 c 0,0 -0.03,-0.78 -0.03,-0.78 H 73.2 L 70.92,48.3 H 58.6 l -0.02,4.22 H 46.45 l -3.47,2.98 c 9.17,8.43 5.46,34.96 5.46,34.96 9.01,14.42 25.14,22.21 31.01,24.67 h 2.2 z"
       id="path11"
       style="fill:url(#radial-gradient-3)" />
    <polygon
       class="cls-11"
       points="68.07,45.83 51.9,15.08 60.58,45.83 "
       id="polygon11"
       style="fill:url(#linear-gradient)" />
    <polygon
       class="cls-1"
       points="93.06,45.95 109.23,15.2 100.55,45.95 "
       id="polygon12"
       style="fill:url(#linear-gradient-2)" />
    <ellipse
       class="cls-2"
       cx="128.52"
       cy="62.450001"
       rx="3.5999999"
       ry="2.1199999"
       id="ellipse12" />
    <ellipse
       class="cls-2"
       cx="32.060001"
       cy="61.5"
       rx="4.0900002"
       ry="2.4100001"
       id="ellipse13" />
    <polygon
       class="cls-3"
       points="83.44,0 89.53,16.25 95.4,3.62 97.91,13.35 106.81,16.69 96.35,16.47 94.32,11.25 88.88,23.58 84.31,9.58 82.57,14.37 68.93,19.95 64.15,10.02 53.81,16.69 64.81,4.17 70.35,16.81 80.11,11.79 "
       id="polygon13" />
  </g>
</svg>
