<?xml version="1.0" encoding="UTF-8" standalone="no"?>
<svg
   id="Layer_2"
   viewBox="0 0 610 128.08"
   version="1.1"
   sodipodi:docname="logo2.svg"
   inkscape:version="1.4.2 (f4327f4, 2025-05-13)"
   width="610"
   height="128.08"
   xmlns:inkscape="http://www.inkscape.org/namespaces/inkscape"
   xmlns:sodipodi="http://sodipodi.sourceforge.net/DTD/sodipodi-0.dtd"
   xmlns:xlink="http://www.w3.org/1999/xlink"
   xmlns="http://www.w3.org/2000/svg"
   xmlns:svg="http://www.w3.org/2000/svg">
  <sodipodi:namedview
     id="namedview13"
     pagecolor="#ffffff"
     bordercolor="#000000"
     borderopacity="0.25"
     inkscape:showpageshadow="2"
     inkscape:pageopacity="0.0"
     inkscape:pagecheckerboard="0"
     inkscape:deskcolor="#d1d1d1"
     inkscape:zoom="2.7250837"
     inkscape:cx="211.36965"
     inkscape:cy="64.03473"
     inkscape:window-width="1920"
     inkscape:window-height="1111"
     inkscape:window-x="-9"
     inkscape:window-y="-9"
     inkscape:window-maximized="1"
     inkscape:current-layer="Layer_2"
     showgrid="false" />
  <defs
     id="defs8">
    <style
       id="style1">
    
      .cls-1 {
        fill: url(#linear-gradient-2);
      }

      .cls-2 {
        fill: #f2f9e5;
      }

      .cls-3 {
        fill: #a7c7ff;
      }

      .cls-4 {
        fill: url(#radial-gradient);
      }

      .cls-5 {
        fill: url(#radial-gradient-3);
      }

      .cls-6 {
        font-family: Anton, sans-serif;
        font-size: 58.97px;
      }

      .cls-6, .cls-7 {
        fill: #9c3;
      }

      .cls-8 {
        fill: url(#radial-gradient-2);
      }

      .cls-9 {
        letter-spacing: .3em;
      }

      .cls-10 {
        letter-spacing: .24em;
      }

      .cls-11 {
        fill: url(#linear-gradient);
      }

      .cls-7 {
        font-family: ArialMT, Arial;
        font-size: 28.01px;
      }
    </style>
    <radialGradient
       id="radial-gradient"
       cx="33.099998"
       cy="116.85"
       fx="33.099998"
       fy="116.85"
       r="27.190001"
       gradientTransform="matrix(1,0,0,1.08,0,-65.06)"
       gradientUnits="userSpaceOnUse">
      <stop
         offset=".11"
         stop-color="#efe37c"
         id="stop1" />
      <stop
         offset=".93"
         stop-color="#9c3"
         id="stop2" />
    </radialGradient>
    <radialGradient
       id="radial-gradient-2"
       cx="2148.48"
       cy="116.85"
       fx="2148.48"
       fy="116.85"
       r="27.190001"
       gradientTransform="matrix(-1,0,0,1.08,2275.09,-65.06)"
       xlink:href="#radial-gradient" />
    <radialGradient
       id="radial-gradient-3"
       cx="80.540001"
       cy="81.720001"
       fx="80.540001"
       fy="81.720001"
       r="35.549999"
       gradientUnits="userSpaceOnUse">
      <stop
         offset="0"
         stop-color="#7e9400"
         id="stop3" />
      <stop
         offset="1"
         stop-color="#516a00"
         id="stop4" />
    </radialGradient>
    <linearGradient
       id="linear-gradient"
       x1="54.59"
       y1="32.07"
       x2="61.290001"
       y2="30.059999"
       gradientUnits="userSpaceOnUse">
      <stop
         offset=".11"
         stop-color="#efe37c"
         id="stop5" />
      <stop
         offset="1"
         stop-color="#a4b401"
         id="stop6" />
    </linearGradient>
    <linearGradient
       id="linear-gradient-2"
       x1="97.989998"
       y1="29.65"
       x2="103.69"
       y2="31.33"
       gradientUnits="userSpaceOnUse">
      <stop
         offset=".11"
         stop-color="#efe37c"
         id="stop7" />
      <stop
         offset=".93"
         stop-color="#a4b401"
         id="stop8" />
    </linearGradient>
    <radialGradient
       inkscape:collect="always"
       xlink:href="#radial-gradient"
       id="radialGradient1"
       gradientUnits="userSpaceOnUse"
       gradientTransform="matrix(1,0,0,1.08,0,-65.06)"
       cx="33.099998"
       cy="116.85"
       fx="33.099998"
       fy="116.85"
       r="27.190001" />
  </defs>
  <g
     id="zap"
     transform="translate(4.4035345,1.1008836)">
    <path
       class="cls-4"
       d="m 42.85,55.62 c 0,0 -24.6,-2.26 -34.31,0.1 -9.71,2.36 -10,8.68 -6.51,13.12 3.49,4.44 26.43,19.88 46.52,21.74 0,0 6.7,-22.69 -5.7,-34.96 z"
       id="path9"
       style="fill:url(#radialGradient1)" />
    <path
       class="cls-8"
       d="m 116.86,55.62 c 0,0 24.6,-2.26 34.31,0.1 9.71,2.36 10,8.68 6.51,13.12 -3.49,4.44 -26.43,19.88 -46.52,21.74 0,0 -6.7,-22.69 5.7,-34.96 z"
       id="path10"
       style="fill:url(#radial-gradient-2)" />
    <path
       class="cls-5"
       d="m 81.64,115.13 c 5.87,-2.46 22,-10.25 31.01,-24.67 0,0 -3.72,-26.53 5.46,-34.96 l -3.47,-2.98 H 102.51 L 102.49,48.3 H 90.17 l -2.28,3.6 h -7.33 v 0.78 c 0,0 -0.03,-0.78 -0.03,-0.78 H 73.2 L 70.92,48.3 H 58.6 l -0.02,4.22 H 46.45 l -3.47,2.98 c 9.17,8.43 5.46,34.96 5.46,34.96 9.01,14.42 25.14,22.21 31.01,24.67 h 2.2 z"
       id="path11"
       style="fill:url(#radial-gradient-3)" />
    <polygon
       class="cls-11"
       points="68.07,45.83 51.9,15.08 60.58,45.83 "
       id="polygon11"
       style="fill:url(#linear-gradient)" />
    <polygon
       class="cls-1"
       points="93.06,45.95 109.23,15.2 100.55,45.95 "
       id="polygon12"
       style="fill:url(#linear-gradient-2)" />
    <ellipse
       class="cls-2"
       cx="128.52"
       cy="62.450001"
       rx="3.5999999"
       ry="2.1199999"
       id="ellipse12" />
    <ellipse
       class="cls-2"
       cx="32.060001"
       cy="61.5"
       rx="4.0900002"
       ry="2.4100001"
       id="ellipse13" />
    <polygon
       class="cls-3"
       points="83.44,0 89.53,16.25 95.4,3.62 97.91,13.35 106.81,16.69 96.35,16.47 94.32,11.25 88.88,23.58 84.31,9.58 82.57,14.37 68.93,19.95 64.15,10.02 53.81,16.69 64.81,4.17 70.35,16.81 80.11,11.79 "
       id="polygon13" />
  </g>
  <text
     xml:space="preserve"
     style="font-size:54.0701px;font-family:'Nirmala Text';-inkscape-font-specification:'Nirmala Text, Normal';text-align:start;writing-mode:lr-tb;direction:ltr;text-anchor:start;fill:#99cc33;stroke-width:0.899115"
     x="191.85176"
     y="88.337494"
     id="text1"
     transform="scale(0.92411167,1.0821203)"><tspan
       sodipodi:role="line"
       id="tspan1"
       x="191.85176"
       y="88.337494"
       style="stroke-width:0.899115"><tspan
         style="font-style:normal;font-variant:normal;font-weight:normal;font-stretch:normal;font-size:54.0701px;font-family:Impact;-inkscape-font-specification:'Impact, Normal';font-variant-ligatures:normal;font-variant-caps:normal;font-variant-numeric:normal;font-variant-east-asian:normal;stroke-width:0.899115"
         id="tspan3">M</tspan><tspan
         style="font-style:normal;font-variant:normal;font-weight:normal;font-stretch:normal;font-size:54.0701px;font-family:Impact;-inkscape-font-specification:'Impact, Normal';font-variant-ligatures:normal;font-variant-caps:normal;font-variant-numeric:normal;font-variant-east-asian:normal;stroke-width:0.899115"
         id="tspan2">antis Digital Media</tspan></tspan></text>
</svg>
