<?xml version="1.0" encoding="UTF-8"?>
<svg id="Layer_2" xmlns="http://www.w3.org/2000/svg" xmlns:xlink="http://www.w3.org/1999/xlink" viewBox="0 0 510.81 128.08">
  <defs>
    <style>
    
      .cls-1 {
        fill: url(#linear-gradient-2);
      }

      .cls-2 {
        fill: #f2f9e5;
      }

      .cls-3 {
        fill: #a7c7ff;
      }

      .cls-4 {
        fill: url(#radial-gradient);
      }

      .cls-5 {
        fill: url(#radial-gradient-3);
      }

      .cls-6 {
        font-family: Anton, sans-serif;
        font-size: 58.97px;
      }

      .cls-6, .cls-7 {
        fill: #9c3;
      }

      .cls-8 {
        fill: url(#radial-gradient-2);
      }

      .cls-9 {
        letter-spacing: .3em;
      }

      .cls-10 {
        letter-spacing: .24em;
      }

      .cls-11 {
        fill: url(#linear-gradient);
      }

      .cls-7 {
        font-family: ArialMT, Arial;
        font-size: 28.01px;
      }
    </style>
    <radialGradient id="radial-gradient" cx="33.1" cy="116.85" fx="33.1" fy="116.85" r="27.19" gradientTransform="translate(0 -65.06) scale(1 1.08)" gradientUnits="userSpaceOnUse">
      <stop offset=".11" stop-color="#efe37c"/>
      <stop offset=".93" stop-color="#9c3"/>
    </radialGradient>
    <radialGradient id="radial-gradient-2" cx="2148.48" cy="116.85" fx="2148.48" fy="116.85" r="27.19" gradientTransform="translate(2275.09 -65.06) rotate(-180) scale(1 -1.08)" xlink:href="#radial-gradient"/>
    <radialGradient id="radial-gradient-3" cx="80.54" cy="81.72" fx="80.54" fy="81.72" r="35.55" gradientUnits="userSpaceOnUse">
      <stop offset="0" stop-color="#7e9400"/>
      <stop offset="1" stop-color="#516a00"/>
    </radialGradient>
    <linearGradient id="linear-gradient" x1="54.59" y1="32.07" x2="61.29" y2="30.06" gradientUnits="userSpaceOnUse">
      <stop offset=".11" stop-color="#efe37c"/>
      <stop offset="1" stop-color="#a4b401"/>
    </linearGradient>
    <linearGradient id="linear-gradient-2" x1="97.99" y1="29.65" x2="103.69" y2="31.33" gradientUnits="userSpaceOnUse">
      <stop offset=".11" stop-color="#efe37c"/>
      <stop offset=".93" stop-color="#a4b401"/>
    </linearGradient>
  </defs>
  <g id="Layer_9">
    <text class="cls-6" transform="translate(186.78 86.95)"><tspan x="0" y="0">MantisDigital</tspan></text>
    <text class="cls-7" transform="translate(182.81 118.99) scale(2.66 1)"><tspan class="cls-9" x="0" y="0">MEDIA</tspan></text>
  </g>
  <g id="zap">
    <path class="cls-4" d="M42.85,55.62s-24.6-2.26-34.31.1-10,8.68-6.51,13.12,26.43,19.88,46.52,21.74c0,0,6.7-22.69-5.7-34.96Z"/>
    <path class="cls-8" d="M116.86,55.62s24.6-2.26,34.31.1c9.71,2.36,10,8.68,6.51,13.12s-26.43,19.88-46.52,21.74c0,0-6.7-22.69,5.7-34.96Z"/>
    <path class="cls-5" d="M81.64,115.13c5.87-2.46,22-10.25,31.01-24.67,0,0-3.72-26.53,5.46-34.96l-3.47-2.98h-12.13l-.02-4.22h-12.32l-2.28,3.6h-7.33v.78s-.03-.78-.03-.78h-7.33l-2.28-3.6h-12.32l-.02,4.22h-12.13l-3.47,2.98c9.17,8.43,5.46,34.96,5.46,34.96,9.01,14.42,25.14,22.21,31.01,24.67h2.2Z"/>
    <polygon class="cls-11" points="60.58 45.83 68.07 45.83 51.9 15.08 60.58 45.83"/>
    <polygon class="cls-1" points="100.55 45.95 93.06 45.95 109.23 15.2 100.55 45.95"/>
    <ellipse class="cls-2" cx="128.52" cy="62.45" rx="3.6" ry="2.12"/>
    <ellipse class="cls-2" cx="32.06" cy="61.5" rx="4.09" ry="2.41"/>
    <polygon class="cls-3" points="53.81 16.69 64.81 4.17 70.35 16.81 80.11 11.79 83.44 0 89.53 16.25 95.4 3.62 97.91 13.35 106.81 16.69 96.35 16.47 94.32 11.25 88.88 23.58 84.31 9.58 82.57 14.37 68.93 19.95 64.15 10.02 53.81 16.69"/>
  </g>
</svg>