<?xml version="1.0" encoding="UTF-8" standalone="no"?>
<svg
   id="Layer_2"
   viewBox="0 0 510.81 128.08"
   version="1.1"
   sodipodi:docname="logo2.svg"
   inkscape:version="1.4.2 (f4327f4, 2025-05-13)"
   xmlns:inkscape="http://www.inkscape.org/namespaces/inkscape"
   xmlns:sodipodi="http://sodipodi.sourceforge.net/DTD/sodipodi-0.dtd"
   xmlns:xlink="http://www.w3.org/1999/xlink"
   xmlns="http://www.w3.org/2000/svg"
   xmlns:svg="http://www.w3.org/2000/svg">
  <sodipodi:namedview
     id="namedview13"
     pagecolor="#ffffff"
     bordercolor="#000000"
     borderopacity="0.25"
     inkscape:showpageshadow="2"
     inkscape:pageopacity="0.0"
     inkscape:pagecheckerboard="0"
     inkscape:deskcolor="#d1d1d1"
     inkscape:zoom="2.7250837"
     inkscape:cx="169.90304"
     inkscape:cy="64.03473"
     inkscape:window-width="1536"
     inkscape:window-height="889"
     inkscape:window-x="-8"
     inkscape:window-y="-8"
     inkscape:window-maximized="1"
     inkscape:current-layer="Layer_2" />
  <defs
     id="defs8">
    <style
       id="style1">
    
      .cls-1 {
        fill: url(#linear-gradient-2);
      }

      .cls-2 {
        fill: #f2f9e5;
      }

      .cls-3 {
        fill: #a7c7ff;
      }

      .cls-4 {
        fill: url(#radial-gradient);
      }

      .cls-5 {
        fill: url(#radial-gradient-3);
      }

      .cls-6 {
        font-family: Anton, sans-serif;
        font-size: 58.97px;
      }

      .cls-6, .cls-7 {
        fill: #9c3;
      }

      .cls-8 {
        fill: url(#radial-gradient-2);
      }

      .cls-9 {
        letter-spacing: .3em;
      }

      .cls-10 {
        letter-spacing: .24em;
      }

      .cls-11 {
        fill: url(#linear-gradient);
      }

      .cls-7 {
        font-family: ArialMT, Arial;
        font-size: 28.01px;
      }
    </style>
    <radialGradient
       id="radial-gradient"
       cx="33.1"
       cy="116.85"
       fx="33.1"
       fy="116.85"
       r="27.19"
       gradientTransform="translate(0 -65.06) scale(1 1.08)"
       gradientUnits="userSpaceOnUse">
      <stop
         offset=".11"
         stop-color="#efe37c"
         id="stop1" />
      <stop
         offset=".93"
         stop-color="#9c3"
         id="stop2" />
    </radialGradient>
    <radialGradient
       id="radial-gradient-2"
       cx="2148.48"
       cy="116.85"
       fx="2148.48"
       fy="116.85"
       r="27.19"
       gradientTransform="translate(2275.09 -65.06) rotate(-180) scale(1 -1.08)"
       xlink:href="#radial-gradient" />
    <radialGradient
       id="radial-gradient-3"
       cx="80.54"
       cy="81.72"
       fx="80.54"
       fy="81.72"
       r="35.55"
       gradientUnits="userSpaceOnUse">
      <stop
         offset="0"
         stop-color="#7e9400"
         id="stop3" />
      <stop
         offset="1"
         stop-color="#516a00"
         id="stop4" />
    </radialGradient>
    <linearGradient
       id="linear-gradient"
       x1="54.59"
       y1="32.07"
       x2="61.29"
       y2="30.06"
       gradientUnits="userSpaceOnUse">
      <stop
         offset=".11"
         stop-color="#efe37c"
         id="stop5" />
      <stop
         offset="1"
         stop-color="#a4b401"
         id="stop6" />
    </linearGradient>
    <linearGradient
       id="linear-gradient-2"
       x1="97.99"
       y1="29.65"
       x2="103.69"
       y2="31.33"
       gradientUnits="userSpaceOnUse">
      <stop
         offset=".11"
         stop-color="#efe37c"
         id="stop7" />
      <stop
         offset=".93"
         stop-color="#a4b401"
         id="stop8" />
    </linearGradient>
  </defs>
  <g
     id="zap">
    <path
       class="cls-4"
       d="M42.85,55.62s-24.6-2.26-34.31.1-10,8.68-6.51,13.12,26.43,19.88,46.52,21.74c0,0,6.7-22.69-5.7-34.96Z"
       id="path9" />
    <path
       class="cls-8"
       d="M116.86,55.62s24.6-2.26,34.31.1c9.71,2.36,10,8.68,6.51,13.12s-26.43,19.88-46.52,21.74c0,0-6.7-22.69,5.7-34.96Z"
       id="path10" />
    <path
       class="cls-5"
       d="M81.64,115.13c5.87-2.46,22-10.25,31.01-24.67,0,0-3.72-26.53,5.46-34.96l-3.47-2.98h-12.13l-.02-4.22h-12.32l-2.28,3.6h-7.33v.78s-.03-.78-.03-.78h-7.33l-2.28-3.6h-12.32l-.02,4.22h-12.13l-3.47,2.98c9.17,8.43,5.46,34.96,5.46,34.96,9.01,14.42,25.14,22.21,31.01,24.67h2.2Z"
       id="path11" />
    <polygon
       class="cls-11"
       points="60.58 45.83 68.07 45.83 51.9 15.08 60.58 45.83"
       id="polygon11" />
    <polygon
       class="cls-1"
       points="100.55 45.95 93.06 45.95 109.23 15.2 100.55 45.95"
       id="polygon12" />
    <ellipse
       class="cls-2"
       cx="128.52"
       cy="62.45"
       rx="3.6"
       ry="2.12"
       id="ellipse12" />
    <ellipse
       class="cls-2"
       cx="32.06"
       cy="61.5"
       rx="4.09"
       ry="2.41"
       id="ellipse13" />
    <polygon
       class="cls-3"
       points="53.81 16.69 64.81 4.17 70.35 16.81 80.11 11.79 83.44 0 89.53 16.25 95.4 3.62 97.91 13.35 106.81 16.69 96.35 16.47 94.32 11.25 88.88 23.58 84.31 9.58 82.57 14.37 68.93 19.95 64.15 10.02 53.81 16.69"
       id="polygon13" />
  </g>
  <path
     d="m 212.01539,48.860488 v 52.565762 h -9.71162 V 65.93868 l -3.87936,35.48757 h -6.88786 l -4.09048,-34.675869 v 34.675869 h -9.71162 V 48.860488 h 14.38269 q 0.63336,4.740335 1.3459,11.169007 l 1.53064,13.376836 2.53346,-24.545843 z m 13.67014,26.169245 h -10.0019 v -2.889657 q 0,-5.000078 0.92367,-7.694926 0.95004,-2.727316 3.7738,-4.805271 2.82375,-2.077955 7.33648,-2.077955 5.41001,0 8.15459,2.370168 2.74459,2.337699 3.29879,5.779312 0.55419,3.409145 0.55419,14.091131 v 21.623715 h -10.37137 v -3.831225 q -0.97644,2.305232 -2.53346,3.474085 -1.53063,1.13638 -3.66825,1.13638 -2.79736,0 -5.1461,-1.91562 -2.32234,-1.94808 -2.32234,-8.474157 v -3.539017 q 0,-4.837739 1.24035,-6.591014 1.24033,-1.753274 6.14892,-4.090974 5.25166,-2.532507 5.62112,-3.409145 0.36947,-0.876637 0.36947,-3.571484 0,-3.376677 -0.42224,-4.383187 -0.39586,-1.038977 -1.3459,-1.038977 -1.08201,0 -1.34591,0.876637 -0.26391,0.844169 -0.26391,4.448122 z m 3.37796,5.909184 q -2.55986,2.305232 -2.9821,3.863698 -0.39586,1.558466 -0.39586,4.480591 0,3.344208 0.34308,4.318249 0.36946,0.974041 1.42508,0.974041 1.00283,0 1.29312,-0.746765 0.31668,-0.779233 0.31668,-4.026037 z m 25.1763,-22.59776 -0.18473,3.961102 q 1.16117,-2.370167 2.82375,-3.539017 1.68898,-1.201318 3.87937,-1.201318 2.74458,0 4.48634,1.590934 1.74175,1.590934 2.24316,4.026038 0.50142,2.402635 0.50142,8.052075 V 101.42625 H 257.32744 V 71.58812 q 0,-4.448122 -0.2375,-5.422164 -0.23752,-0.974041 -1.31952,-0.974041 -1.13478,0 -1.42507,1.136381 -0.29029,1.103915 -0.29029,5.974122 V 101.42625 H 243.39339 V 58.341157 Z m 28.6598,-5.746844 v 6.785822 h 2.87654 v 6.818289 h -2.87654 v 23.052313 q 0,4.253314 0.34308,4.740334 0.36946,0.487022 2.98209,0.487022 v 6.948157 h -4.3016 q -3.64186,0 -5.19888,-0.35714 -1.55703,-0.38962 -2.74458,-1.72081 -1.18757,-1.363658 -1.47787,-3.084465 -0.29029,-1.753274 -0.29029,-8.181948 V 66.198424 h -2.29594 v -6.818289 h 2.29594 v -6.785822 z m 16.20361,-3.733825 v 6.850757 h -10.97834 v -6.850757 z m 0,9.480669 V 101.42625 H 288.12486 V 58.341157 Z m 25.59855,13.766452 h -9.4477 v -2.3377 q 0,-2.98706 -0.29029,-3.766293 -0.26391,-0.811701 -1.3723,-0.811701 -0.89727,0 -1.3459,0.746765 -0.44863,0.714297 -0.44863,2.175359 0,1.980551 0.21111,2.922124 0.23752,0.909105 1.34591,2.01302 1.13477,1.103913 4.6183,3.214335 4.64468,2.792252 6.09614,5.259824 1.45146,2.467572 1.45146,7.175439 0,5.259823 -1.10839,7.954671 -1.10839,2.66238 -3.72103,4.123438 -2.58624,1.4286 -6.25448,1.4286 -4.0641,0 -6.96703,-1.55847 -2.87653,-1.558465 -3.95854,-4.220845 -1.08199,-2.662379 -1.08199,-8.052076 v -2.077954 h 9.4477 v 2.727316 q 0,3.47408 0.34308,4.513058 0.36946,1.038977 1.42507,1.038977 1.13478,0 1.58342,-0.681828 0.44863,-0.714297 0.44863,-2.954592 0,-3.084465 -0.58058,-3.863698 -0.60699,-0.779233 -6.20171,-4.610463 -4.69747,-3.246805 -5.72669,-5.876715 -1.02922,-2.66238 -1.02922,-6.298802 0,-5.162419 1.1084,-7.597523 1.10838,-2.467571 3.74741,-3.798761 2.66541,-1.33119 6.17531,-1.33119 3.48352,0 5.91142,1.103914 2.45429,1.071445 3.74742,2.857187 1.31951,1.785744 1.58341,3.311741 0.29029,1.525998 0.29029,4.772803 z m 13.51182,-23.247121 h 8.31292 q 8.04903,0 10.87279,0.909105 2.85014,0.909105 4.32799,2.98706 1.47786,2.077955 1.84732,4.642931 0.36947,2.532508 0.36947,10.000158 v 18.409382 q 0,7.078034 -0.5542,9.480669 -0.52781,2.370168 -1.87371,3.733826 -1.3459,1.331191 -3.32517,1.883151 -1.97927,0.51948 -5.96419,0.51948 h -14.01322 z m 11.11029,8.993649 v 34.578469 q 2.40151,0 2.95571,-1.16885 0.55419,-1.201318 0.55419,-6.461141 V 64.380214 q 0,-3.571485 -0.18473,-4.577995 -0.18474,-1.006509 -0.84449,-1.461062 -0.65976,-0.48702 -2.48068,-0.48702 z m 29.42511,-8.993649 v 6.850757 h -10.97834 v -6.850757 z m 0,9.480669 V 101.42625 H 367.77063 V 58.341157 Z m 28.05284,0 v 33.182344 q 0,6.720885 -0.26391,8.701439 -0.2375,1.94808 -1.76814,4.12344 -1.53063,2.20783 -4.27522,3.34421 -2.71819,1.16885 -6.86147,1.16885 -5.09331,0 -8.18098,-2.14289 -3.08765,-2.11043 -3.19322,-8.344292 h 10.34499 q 0,2.857192 1.68897,2.857192 1.21395,0 1.60981,-0.87664 0.39585,-0.876638 0.39585,-3.66889 v -3.246805 q -1.37229,1.525998 -2.90293,2.305231 -1.50424,0.779234 -3.16682,0.779234 -2.87654,0 -4.75025,-1.428595 -1.84732,-1.428594 -2.53347,-3.733825 -0.68615,-2.337699 -0.68615,-6.623481 V 69.088081 q 0,-6.136461 1.79455,-8.831309 1.79453,-2.694848 5.46278,-2.694848 2.00565,0 3.64185,1.006509 1.66258,1.00651 2.95571,3.019529 l 0.76532,-3.246805 z m -10.68805,11.428752 q 0,-2.954592 -0.2903,-3.766293 -0.2639,-0.811701 -1.21394,-0.811701 -0.92367,0 -1.31952,0.941574 -0.36946,0.909105 -0.36946,3.63642 v 14.48075 q 0,2.889655 0.29029,3.766292 0.29029,0.84417 1.21396,0.84417 1.0556,0 1.37229,-1.038978 0.31668,-1.038977 0.31668,-4.707866 z m 25.46658,-20.909421 v 6.850757 H 410.602 v -6.850757 z m 0,9.480669 V 101.42625 H 410.602 V 58.341157 Z m 15.06884,-5.746844 v 6.785822 h 2.87654 v 6.818289 h -2.87654 v 23.052313 q 0,4.253314 0.34308,4.740334 0.36946,0.487022 2.98209,0.487022 v 6.948157 h -4.30161 q -3.64185,0 -5.19887,-0.35714 -1.55703,-0.38962 -2.74458,-1.72081 -1.18757,-1.363658 -1.47787,-3.084465 -0.29029,-1.753274 -0.29029,-8.181948 V 66.198424 h -2.29595 v -6.818289 h 2.29595 v -6.785822 z m 14.75216,22.43542 h -10.0019 v -2.889657 q 0,-5.000078 0.92365,-7.694926 0.95006,-2.727316 3.77381,-4.805271 2.82376,-2.077955 7.33649,-2.077955 5.41,0 8.15458,2.370168 2.74459,2.337699 3.29878,5.779312 0.5542,3.409145 0.5542,14.091131 v 21.623715 h -10.37137 v -3.831225 q -0.97643,2.305232 -2.53346,3.474085 -1.53064,1.13638 -3.66825,1.13638 -2.79736,0 -5.14609,-1.91562 -2.32234,-1.94808 -2.32234,-8.474157 v -3.539017 q 0,-4.837739 1.24033,-6.591014 1.24035,-1.753274 6.14894,-4.090974 5.25165,-2.532507 5.62112,-3.409145 0.36946,-0.876637 0.36946,-3.571484 0,-3.376677 -0.42225,-4.383187 -0.39584,-1.038977 -1.3459,-1.038977 -1.08199,0 -1.3459,0.876637 -0.2639,0.844169 -0.2639,4.448122 z m 3.37795,5.909184 q -2.55985,2.305232 -2.98209,3.863698 -0.39586,1.558466 -0.39586,4.480591 0,3.344208 0.34307,4.318249 0.36947,0.974041 1.42508,0.974041 1.00283,0 1.29312,-0.746765 0.31668,-0.779233 0.31668,-4.026037 z M 480.08755,48.860488 V 101.42625 H 469.1092 V 48.860488 Z"
     id="text13"
     style="font-size:59.9487px;font-family:Impact;-inkscape-font-specification:'Impact, Normal';fill:#99cc33;stroke-width:4.99573"
     aria-label="Mantis Digital" />
</svg>
